#!OML:ASF F:\VICON\USERDATA\INSTALL\rory3\rory3.ASF
:FULLY-SPECIFIED
:DEGREES
241
root -6.94017 17.7755 9.21596 -178.443 37.5212 -177.197
lowerback 12.0304 1.92087 -1.01355
upperback 1.09282 2.50959 0.0702126
thorax -5.6433 1.29594 0.222029
lowerneck -14.9395 -7.06438 -11.4753
upperneck 36.2117 -7.54174 7.80666
head 16.2958 -2.90396 4.27169
rclavicle 2.03257e-014 -1.98785e-015
rhumerus -35.0733 -11.014 -77.019
rradius 34.4698
rwrist 7.45096
rhand -20.4866 7.27633
rfingers 7.12502
rthumb 5.87001 -22.6224
lclavicle 2.03257e-014 -1.98785e-015
lhumerus -33.6014 10.4051 76.6454
lradius 33.6583
lwrist -6.00844
lhand -20.6754 24.1994
lfingers 7.12502
lthumb 5.68772 54.103
rfemur 0.879213 -0.702187 17.7334
rtibia 20.0541
rfoot -19.4909 4.08828
rtoes -15.5129
lfemur -16.1706 3.42856 -7.14531
ltibia 35.493
lfoot -9.21285 11.7945
ltoes -4.13232
242
root -6.90586 17.7793 9.27519 -178.57 37.0941 -177.301
lowerback 12.105 1.90522 -0.905384
upperback 1.13555 2.50614 0.0776008
thorax -5.63544 1.29291 0.16775
lowerneck -15.0623 -7.07506 -11.4295
upperneck 36.1287 -7.53257 7.70251
head 16.2726 -2.90977 4.21084
rclavicle 4.17448e-014 2.78299e-015
rhumerus -35.0556 -11.0153 -76.6884
rradius 34.5403
rwrist 7.32261
rhand -20.414 7.29345
rfingers 7.12502
rthumb 5.94008 -22.6033
lclavicle 4.17448e-014 2.78299e-015
lhumerus -33.7616 10.5747 76.8393
lradius 33.432
lwrist -6.13668
lhand -20.5221 24.4572
lfingers 7.12502
lthumb 5.83576 54.3568
rfemur 0.757306 -0.795234 17.9259
rtibia 20.4169
rfoot -19.5939 3.84582
rtoes -14.9032
lfemur -16.4376 4.25653 -8.0481
ltibia 36.6122
lfoot -10.0515 10.3847
ltoes -6.43994
243
root -6.87193 17.7847 9.3314 -178.573 36.6671 -177.231
lowerback 12.2028 1.90089 -0.653257
upperback 1.10535 2.53653 0.13335
thorax -5.7139 1.30227 0.0750738
lowerneck -15.0473 -7.11846 -11.4794
upperneck 36.0577 -7.57006 7.66869
head 16.2396 -2.9368 4.19332
rclavicle 4.72114e-015 1.35174e-014
rhumerus -35.222 -11.0785 -76.2734
rradius 34.6797
rwrist 7.21509
rhand -20.4119 7.35709
rfingers 7.12502
rthumb 5.94216 -22.5396
lclavicle 4.72114e-015 1.35174e-014
lhumerus -34.0701 10.6901 76.9864
lradius 33.2237
lwrist -6.42677
lhand -20.2084 24.1665
lfingers 7.12502
lthumb 6.13861 54.0576
rfemur 0.627091 -0.718433 18.2608
rtibia 20.8538
rfoot -19.7153 3.67292
rtoes -12.9172
lfemur -16.6557 4.8872 -8.78925
ltibia 37.6672
lfoot -10.6164 9.02501
ltoes -10.5482
244
root -6.84124 17.786 9.39287 -178.65 36.1554 -177.226
lowerback 12.3374 1.87267 -0.455291
upperback 1.13112 2.52974 0.157415
thorax -5.75418 1.29553 -0.0142329
lowerneck -15.059 -7.12084 -11.4189
upperneck 35.9353 -7.57032 7.59589
head 16.1712 -2.94039 4.14229
rclavicle -7.62836e-014 9.14409e-015
rhumerus -35.3051 -11.3045 -75.8643
rradius 34.7435
rwrist 7.03926
rhand -20.2967 7.53787
rfingers 7.12502
rthumb 6.05333 -22.3557
lclavicle -7.62836e-014 9.14409e-015
lhumerus -34.2602 10.7 77.1573
lradius 33.0377
lwrist -6.52327
lhand -20.0217 24.1539
lfingers 7.12502
lthumb 6.31889 54.0397
rfemur 0.492026 -0.604011 18.5688
rtibia 21.3377
rfoot -19.852 3.4067
rtoes -10.7822
lfemur -16.8733 5.33275 -9.55804
ltibia 38.6702
lfoot -11.6061 7.45666
ltoes -12.7927
245
root -6.81115 17.789 9.45449 -178.583 35.6737 -177.164
lowerback 12.3472 1.8268 -0.223419
upperback 1.15134 2.50463 0.198044
thorax -5.73015 1.27885 -0.0976572
lowerneck -15.1492 -7.08548 -11.3312
upperneck 35.8077 -7.50132 7.46877
head 16.1049 -2.92025 4.0736
rclavicle 1.00635e-014 -5.36719e-015
rhumerus -35.252 -11.5465 -75.5076
rradius 34.746
rwrist 6.94214
rhand -20.369 7.45435
rfingers 7.12502
rthumb 5.98362 -22.4412
lclavicle 1.00635e-014 -5.36719e-015
lhumerus -34.3113 10.9 77.3167
lradius 32.7589
lwrist -6.57453
lhand -19.8564 24.2203
lfingers 7.12502
lthumb 6.4784 54.1012
rfemur 0.249483 -0.501061 18.8935
rtibia 21.7837
rfoot -19.9459 3.28387
rtoes -8.49101
lfemur -17.1642 5.80527 -10.2934
ltibia 39.6802
lfoot -12.6203 5.70013
ltoes -13.4238
246
root -6.78289 17.7873 9.51015 -178.547 35.2504 -177.233
lowerback 12.3209 1.80372 -0.0781906
upperback 1.0763 2.49229 0.226463
thorax -5.78984 1.26789 -0.148019
lowerneck -14.9763 -7.04989 -11.3527
upperneck 35.6736 -7.41539 7.37167
head 15.9794 -2.90218 4.04568
rclavicle -1.32614e-013 1.09332e-014
rhumerus -35.35 -11.5919 -75.1731
rradius 34.8514
rwrist 6.61838
rhand -20.5937 7.03842
rfingers 7.12502
rthumb 5.76661 -22.8631
lclavicle -1.32614e-013 1.09332e-014
lhumerus -34.5581 11.1118 77.4698
lradius 32.4038
lwrist -6.73207
lhand -20.1894 23.9352
lfingers 7.12502
lthumb 6.15699 53.8257
rfemur -0.0624959 -0.692034 19.0609
rtibia 22.1697
rfoot -20.0691 3.06028
rtoes -8.38925
lfemur -17.3808 6.30204 -11.189
ltibia 40.6678
lfoot -13.6274 4.2367
ltoes -15.6886
247
root -6.75593 17.7769 9.5657 -178.545 34.8081 -177.253
lowerback 12.3311 1.77165 0.102947
upperback 1.04078 2.47532 0.254022
thorax -5.82669 1.25477 -0.219179
lowerneck -14.9117 -7.03543 -11.3418
upperneck 35.6039 -7.35589 7.2576
head 15.914 -2.89096 4.00165
rclavicle 1.80894e-014 -3.57812e-015
rhumerus -35.4162 -11.7441 -74.8229
rradius 34.8682
rwrist 6.21342
rhand -20.7814 6.7208
rfingers 7.12502
rthumb 5.58538 -23.1856
lclavicle 1.80894e-014 -3.57812e-015
lhumerus -34.8408 11.2989 77.573
lradius 32.1588
lwrist -7.03071
lhand -20.3671 23.6244
lfingers 7.12502
lthumb 5.98539 53.5199
rfemur -0.342725 -1.03172 19.3086
rtibia 22.5182
rfoot -20.2778 2.50227
rtoes -10.4817
lfemur -17.5136 6.53892 -11.9804
ltibia 41.603
lfoot -14.5545 2.78919
ltoes -16.4623
248
root -6.72981 17.7712 9.61952 -178.618 34.4029 -177.264
lowerback 12.4227 1.73904 0.281241
upperback 1.07644 2.46095 0.269878
thorax -5.83334 1.24479 -0.302916
lowerneck -15.0591 -7.03031 -11.3516
upperneck 35.5636 -7.34346 7.27526
head 15.9288 -2.88452 4.0092
rclavicle 9.32052e-014 -7.35503e-015
rhumerus -35.3699 -12.1568 -74.4117
rradius 34.7284
rwrist 6.19712
rhand -20.7974 6.83519
rfingers 7.12502
rthumb 5.56999 -23.0716
lclavicle 9.32052e-014 -7.35503e-015
lhumerus -34.8728 11.4756 77.6052
lradius 31.8115
lwrist -7.23499
lhand -20.1835 23.4205
lfingers 7.12502
lthumb 6.16264 53.3108
rfemur -0.566552 -1.27503 19.5574
rtibia 22.9142
rfoot -20.474 2.0214
rtoes -11.7406
lfemur -17.5426 6.5353 -12.7051
ltibia 42.4213
lfoot -15.4254 1.36137
ltoes -15.7412
249
root -6.70324 17.7638 9.66774 -178.745 34.0656 -177.39
lowerback 12.3993 1.72521 0.353537
upperback 1.15504 2.45687 0.281676
thorax -5.73488 1.24367 -0.328118
lowerneck -15.1416 -7.02821 -11.571
upperneck 35.4325 -7.35062 7.48293
head 15.9086 -2.89316 4.13012
rclavicle 5.39203e-014 -4.17448e-015
rhumerus -35.2727 -12.431 -74.0349
rradius 34.6623
rwrist 6.10045
rhand -20.6746 7.13881
rfingers 7.12502
rthumb 5.68848 -22.7648
lclavicle 5.39203e-014 -4.17448e-015
lhumerus -34.8021 11.7689 77.6794
lradius 31.427
lwrist -7.45793
lhand -20.1267 23.788
lfingers 7.12502
lthumb 6.21748 53.6768
rfemur -0.774684 -1.50087 19.6199
rtibia 23.3754
rfoot -20.6787 2.03613
rtoes -10.8579
lfemur -17.4312 6.57205 -13.5386
ltibia 43.1012
lfoot -16.4757 0.149375
ltoes -16.6406
250
root -6.67589 17.7518 9.71771 -178.866 33.6707 -177.647
lowerback 12.36 1.72832 0.262603
upperback 1.11774 2.44687 0.287958
thorax -5.75648 1.24 -0.268059
lowerneck -15.0586 -7.03588 -11.7163
upperneck 35.3969 -7.33753 7.552
head 15.8825 -2.89567 4.18908
rclavicle -1.08835e-014 6.65929e-015
rhumerus -35.4098 -12.5956 -73.6559
rradius 34.7194
rwrist 5.78651
rhand -20.5625 7.11734
rfingers 7.12502
rthumb 5.79675 -22.7834
lclavicle -1.08835e-014 6.65929e-015
lhumerus -35.0826 12.0979 77.7648
lradius 31.1966
lwrist -7.7552
lhand -20.0929 24.2971
lfingers 7.12502
lthumb 6.2501 54.1849
rfemur -1.06895 -1.67439 19.585
rtibia 23.8994
rfoot -20.9848 1.87757
rtoes -10.0847
lfemur -17.2696 6.63735 -14.5112
ltibia 43.6283
lfoot -17.39 -0.636352
ltoes -18.536
251
root -6.64934 17.7414 9.76809 -178.843 33.3029 -177.763
lowerback 12.3248 1.7499 0.272
upperback 1.02683 2.47332 0.299418
thorax -5.83286 1.25043 -0.266415
lowerneck -15.0806 -7.04329 -11.6236
upperneck 35.4554 -7.29882 7.38238
head 15.8975 -2.88375 4.10859
rclavicle -3.25634e-014 1.69961e-014
rhumerus -35.6016 -12.9126 -73.2676
rradius 34.6954
rwrist 5.4977
rhand -20.5437 6.84404
rfingers 7.12502
rthumb 5.81495 -23.0562
lclavicle -3.25634e-014 1.69961e-014
lhumerus -35.4277 12.0976 77.8915
lradius 31.0634
lwrist -7.75615
lhand -19.9147 24.7549
lfingers 7.12502
lthumb 6.42212 54.6375
rfemur -1.50131 -1.95383 19.6738
rtibia 24.4931
rfoot -21.3313 1.67317
rtoes -10.3505
lfemur -17.1186 6.57546 -15.3119
ltibia 44.0374
lfoot -18.0554 -1.53827
ltoes -18.9813
252
root -6.61975 17.7359 9.80947 -178.807 33.0499 -177.816
lowerback 12.1862 1.80285 0.345483
upperback 1.01751 2.55075 0.287642
thorax -5.7615 1.28634 -0.32838
lowerneck -15.192 -7.05725 -11.4681
upperneck 35.4661 -7.30821 7.25025
head 15.914 -2.88127 4.02011
rclavicle -7.7613e-014 7.85199e-015
rhumerus -35.7064 -13.3403 -72.9177
rradius 34.6251
rwrist 5.3641
rhand -20.5309 6.7013
rfingers 7.12502
rthumb 5.82723 -23.1986
lclavicle -7.7613e-014 7.85199e-015
lhumerus -35.6005 12.1305 77.9299
lradius 30.8207
lwrist -7.89796
lhand -19.5488 24.5019
lfingers 7.12502
lthumb 6.77536 54.3735
rfemur -1.9063 -2.26715 19.7851
rtibia 25.0907
rfoot -21.6598 1.60538
rtoes -10.9787
lfemur -16.8725 6.43405 -16.0322
ltibia 44.3594
lfoot -18.761 -2.53229
ltoes -19.4842
253
root -6.59241 17.7272 9.84867 -178.728 32.8403 -177.794
lowerback 12.0458 1.85903 0.469069
upperback 1.01986 2.6405 0.291687
thorax -5.67493 1.32776 -0.403298
lowerneck -15.3992 -7.09615 -11.3634
upperneck 35.5783 -7.36165 7.22149
head 16.0197 -2.88593 3.98285
rclavicle -7.40473e-014 -8.05078e-015
rhumerus -35.7354 -13.7002 -72.6013
rradius 34.4861
rwrist 5.22855
rhand -20.5067 6.84099
rfingers 7.12502
rthumb 5.85061 -23.0582
lclavicle -7.40473e-014 -8.05078e-015
lhumerus -35.7288 12.3105 77.8887
lradius 30.4951
lwrist -8.34605
lhand -19.7865 23.5772
lfingers 7.12502
lthumb 6.54595 53.456
rfemur -2.30732 -2.46346 19.9623
rtibia 25.6457
rfoot -21.8748 1.49127
rtoes -11.5075
lfemur -16.5944 6.32169 -16.6614
ltibia 44.594
lfoot -19.4068 -3.53424
ltoes -20.514
